<svg xmlns="http://www.w3.org/2000/svg" role="img" aria-labelledby="title" viewBox="0 0 836 248" width="836" height="248"><title id="title">test/fixtures/mndflow-plan.md#plan-excerpt-rows-table-1 graph</title><style>svg{background:#10141b;color:#d8dee9;font:13px Inter,system-ui,sans-serif}.edges path{fill:none;stroke:#4a586b;stroke-width:1.5}.node rect{fill:#1b212b;stroke:#3a4655}.node.claimed rect{stroke:#c792ea;stroke-width:3}.node.staged rect{stroke:#e5b567;stroke-width:3}.node text{fill:currentColor}.node .id{fill:#8994a4;font-size:10px}</style><g class="edges"><path d="M 142 96 C 142 124, 418 4, 418 32" /><path d="M 418 96 C 418 124, 694 4, 694 32" /><path d="M 694 96 C 694 124, 142 124, 142 152" /><path d="M 142 216 C 142 244, 418 124, 418 152" /></g><g class="nodes"><g class="node" transform="translate(32 32)"><rect width="220" height="64" rx="5" /><text x="14" y="27">**B.5 ◐**</text><text class="id" x="14" y="46">**B.5 ◐**</text></g><g class="node" transform="translate(308 32)"><rect width="220" height="64" rx="5" /><text x="14" y="27">**C.8 ◆**</text><text class="id" x="14" y="46">**C.8 ◆**</text></g><g class="node" transform="translate(584 32)"><rect width="220" height="64" rx="5" /><text x="14" y="27">**W.1 ⚠**</text><text class="id" x="14" y="46">**W.1 ⚠**</text></g><g class="node" transform="translate(32 152)"><rect width="220" height="64" rx="5" /><text x="14" y="27">**P.1 ✓**</text><text class="id" x="14" y="46">**P.1 ✓**</text></g><g class="node" transform="translate(308 152)"><rect width="220" height="64" rx="5" /><text x="14" y="27">**ST.1 ✗**</text><text class="id" x="14" y="46">**ST.1 ✗**</text></g></g></svg>
